<?xml version="1.0" encoding="utf-8"?>
<!-- Generator: Adobe Illustrator 16.0.0, SVG Export Plug-In . SVG Version: 6.00 Build 0)  -->
<!DOCTYPE svg PUBLIC "-//W3C//DTD SVG 1.1//EN" "http://www.w3.org/Graphics/SVG/1.1/DTD/svg11.dtd">
<svg version="1.1" xmlns="http://www.w3.org/2000/svg" xmlns:xlink="http://www.w3.org/1999/xlink" x="0px" y="0px"
	 width="174.469px" height="66.334px" viewBox="-4.833 -2.834 174.469 66.334"
	 enable-background="new -4.833 -2.834 174.469 66.334" xml:space="preserve">
<g id="Layer_2">
	<path fill="#015A5C" d="M146.715,5.667H18.088c-6.178,0-11.185,4.762-11.185,10.634v28.065C6.903,50.238,11.91,55,18.088,55
		h128.627c6.178,0,11.186-4.762,11.186-10.635V16.3C157.9,10.428,152.893,5.667,146.715,5.667z"/>
</g>
<g id="Layer_1">
	<g>
		<path fill="#44CFD2" d="M36.968,26.942c0-1.272-0.875-1.92-2.387-1.92h-2.159v3.898h2.159
			C36.092,28.921,36.968,28.249,36.968,26.942z"/>
		<path fill="#44CFD2" d="M34.603,35.78h-1.619v2.674h1.619l0,0c0.924,0,1.463-0.469,1.463-1.355
			C36.065,36.224,35.525,35.78,34.603,35.78z"/>
		<path fill="#44CFD2" d="M103.674,26.354c0-0.853-0.66-1.331-1.787-1.331h-2.529v2.698h2.529
			C103.014,27.722,103.674,27.229,103.674,26.354z"/>
		<path fill="#44CFD2" d="M43.1,24.987c-1.871,0-3.43,1.463-3.43,3.311s1.559,3.322,3.43,3.322s3.406-1.475,3.406-3.322
			S44.971,24.987,43.1,24.987z"/>
		<path fill="#44CFD2" d="M62.708,35.804h-1.427v4.988h1.522c1.307,0,2.243-1.008,2.243-2.482
			C65.047,36.823,64.063,35.804,62.708,35.804z"/>
		<path fill="#44CFD2" d="M74.73,26.942c0-1.272-0.862-1.92-2.387-1.92h-2.229v3.896h2.229v0.002
			C73.867,28.921,74.73,28.249,74.73,26.942z"/>
		<path fill="#44CFD2" d="M101.887,28.634h-2.529v2.949h2.529c1.367,0,2.16-0.539,2.16-1.498
			C104.047,29.173,103.254,28.634,101.887,28.634z"/>
		<circle fill="#44CFD2" cx="137.275" cy="36.1" r="11.017"/>
		<path fill="#44CFD2" d="M150.408,2.499H14.396c-6.532,0-11.827,5.373-11.827,12v31.668c0,6.627,5.295,12,11.827,12h136.013
			c6.531,0,11.826-5.373,11.826-12V14.499C162.234,7.872,156.939,2.499,150.408,2.499z M139.094,10.015h5.719l-6.133,6.132h-3.43
			L139.094,10.015z M85.643,24.1h3.395c2.445,0,4.316,1.811,4.316,4.198c0,2.387-1.883,4.197-4.354,4.197h-3.357V24.1z
			 M61.342,24.099h5.697v0.924h-4.737v0.001v2.759h4.233v0.922h-4.233v2.879h4.893v0.91h-5.853V24.099z M31.463,24.1h3.154
			c2.074,0,3.273,1.031,3.273,2.817c0,1.859-1.199,2.928-3.273,2.928h-2.195v2.65h-0.959V24.1z M15.26,42.591
			c-2.531,0-4.414-1.857-4.414-4.316c0-2.424,1.931-4.246,4.486-4.246c1.247-0.002,2.542,0.553,3.382,1.414l-1.235,1.463
			c-0.552-0.672-1.368-1.092-2.11-1.092c-1.332,0-2.34,1.057-2.34,2.436c0,1.402,1.008,2.471,2.34,2.471
			c0.708,0,1.522-0.383,2.11-0.982l1.247,1.318C17.827,41.979,16.495,42.591,15.26,42.591z M21.837,42.495h-2.135v-8.396h2.135
			V42.495z M29.934,35.813h-2.53v6.682h-2.135v-6.682h-2.507v-1.727h7.172V35.813z M35.912,42.495l-1.248-2.361h-0.061h-1.619v2.361
			H30.85v-8.396h3.754c2.22,0,3.49,1.057,3.49,2.928c0,1.283-0.54,2.207-1.523,2.697l1.764,2.771H35.912z M47.094,38.97
			c0,2.219-1.475,3.621-3.826,3.621c-2.362,0-3.874-1.402-3.874-3.621v-4.869h2.135v4.869c0,1.139,0.731,1.834,1.751,1.834
			c1.008,0,1.691-0.695,1.691-1.834v-4.869h2.123V38.97z M43.1,32.544c-2.458,0-4.4-1.883-4.4-4.246c0-2.376,1.942-4.223,4.4-4.223
			c2.447,0,4.391,1.859,4.391,4.223S45.547,32.544,43.1,32.544z M51.836,42.565c-1.403,0-2.843-0.527-3.838-1.344l0.827-1.643
			c0.863,0.756,2.158,1.26,3.034,1.26c0.672,0,1.092-0.252,1.092-0.732c0-1.486-4.438-0.6-4.438-3.572
			c0-1.549,1.331-2.531,3.346-2.531c1.214,0.002,2.448,0.373,3.312,0.936l-0.804,1.668c-0.888-0.516-2.004-0.877-2.688-0.877
			c-0.552,0-0.923,0.205-0.923,0.611c0,1.453,4.438,0.625,4.438,3.66C55.193,41.679,53.707,42.565,51.836,42.565z M56.286,32.495
			l-2.268-7.077l-2.291,7.077h-0.982L47.938,24.1h1.032l2.303,7.28l2.279-7.269l0.959-0.012l2.303,7.28l2.278-7.28h0.996
			l-2.818,8.396H56.286z M62.672,42.495h-3.526v-8.396h3.61v0.002c2.638,0,4.461,1.703,4.461,4.197
			C67.217,40.78,65.37,42.495,62.672,42.495z M75.054,42.495h-6.705v-8.396h6.573v1.68h-4.438v1.668h4.006v1.68h-4.006v1.689h4.569
			V42.495z M74.646,32.495l-1.738-2.674c-0.181,0.012-0.372,0.023-0.564,0.023h-2.229v2.65h-0.96V24.1h3.19
			c2.099,0,3.312,1.031,3.312,2.817c0,1.393-0.673,2.328-1.884,2.725l1.968,2.854H74.646z M79.641,42.565
			c-1.403,0-2.843-0.527-3.838-1.344l0.827-1.643c0.864,0.756,2.159,1.26,3.036,1.26c0.67,0,1.09-0.252,1.09-0.732
			c0-1.486-4.438-0.6-4.438-3.572c0-1.549,1.331-2.531,3.347-2.531c1.211,0.002,2.445,0.373,3.311,0.936l-0.805,1.668
			c-0.887-0.516-2.002-0.877-2.686-0.877c-0.553,0-0.924,0.205-0.924,0.611c0,1.453,4.439,0.625,4.439,3.66
			C83,41.679,81.512,42.565,79.641,42.565z M83.684,32.493H77.83v-8.395h5.697v0.924h-4.736v0.001v2.759h4.232v0.922h-4.232v2.879
			h4.893V32.493z M86.301,42.495h-2.135v-8.396h2.135V42.495z M92.072,40.804c0.432,0,0.982-0.156,1.486-0.408v-2.17h1.848v3.275
			c-0.9,0.635-2.314,1.09-3.49,1.09c-2.555,0-4.486-1.846-4.486-4.293c0-2.436,1.98-4.271,4.631-4.271
			c1.246,0,2.566,0.48,3.432,1.248l-1.201,1.451c-0.611-0.563-1.463-0.912-2.242-0.912c-1.379,0-2.434,1.08-2.434,2.484
			C89.615,39.724,90.68,40.804,92.072,40.804z M104.645,42.495h-1.883L98.9,37.327v5.168h-2.004v-8.396h1.885l3.873,5.182v-5.182
			h1.99V42.495z M101.996,32.495h-3.6V24.1h3.539c1.691,0,2.711,0.779,2.711,2.099c0,0.984-0.563,1.691-1.547,1.896
			c1.211,0.18,1.918,0.971,1.918,2.121C105.018,31.644,103.891,32.495,101.996,32.495z M109.531,42.565
			c-1.402,0-2.842-0.527-3.838-1.344l0.828-1.643c0.863,0.756,2.158,1.26,3.033,1.26c0.672,0,1.092-0.252,1.092-0.732
			c0-1.486-4.438-0.6-4.438-3.572c0-1.549,1.332-2.531,3.346-2.531c1.213,0.002,2.447,0.373,3.311,0.936l-0.803,1.668
			c-0.889-0.516-2.004-0.877-2.688-0.877c-0.551,0-0.924,0.205-0.924,0.611c0,1.453,4.438,0.625,4.438,3.66
			C112.889,41.679,111.402,42.565,109.531,42.565z M109.965,29.616v2.879h-0.002h-0.947v-2.842l-3.25-5.554h0.996l2.723,4.378
			l2.688-4.378h0.982L109.965,29.616z M137.225,50.651c-9.242,0-16.73-7.492-16.73-16.732c0-9.241,7.488-16.732,16.73-16.732
			c9.24,0,16.732,7.491,16.732,16.732C153.957,43.159,146.465,50.651,137.225,50.651z"/>
		<path fill="#44CFD2" d="M92.383,28.31c0-1.883-1.488-3.286-3.371-3.286h-2.41v6.56h2.447C90.92,31.583,92.383,30.181,92.383,28.31
			z"/>
	</g>
</g>
</svg>
